# xmcd
#
# Track frame offsets: 
#        150
#        12208
#        36147
#        49003
#        59724
#        72718
#        93357
#        113515
#        123271
#        134983
#        144896
#        153892
#        171500
#        181582
#        199418
#        215585
#        237455
#        251489
#        286524
#
# Disc length: 4060 seconds
#
# Revision: 0
# Processed by: cddbd v1.5.2PL0 Copyright (c) Steve Scherf et al.
# Submitted via: ExactAudioCopyFreeDBPlugin 1.0
#
DISCID=180fda13
DTITLE=Pierre Perret - Les dieux paillards - CD 2
DYEAR=2011
DGENRE=Variété française
TTITLE0=Les dieux d'Athènes
TTITLE1=Le grand vicaire
TTITLE2=La javanaise
TTITLE3=Cochon de moine
TTITLE4=Le curé Pineau
TTITLE5=Les cent Louis d'or
TTITLE6=Rue de la lune
TTITLE7=Margot
TTITLE8=Poil, demi-poil
TTITLE9=La femme du vidangeur
TTITLE10=La salope
TTITLE11=T'en souviens-tu ?
TTITLE12=Les tremblements de terre
TTITLE13=Le corsaire
TTITLE14=Les bretons
TTITLE15=Cœur de misère
TTITLE16=La sœur du couvent
TTITLE17=Pot-pourri paillard 2
TTITLE18=La pompe à merde
EXTD=Intégrale 1957 - 2011
EXTT0=
EXTT1=
EXTT2=
EXTT3=
EXTT4=
EXTT5=
EXTT6=
EXTT7=
EXTT8=
EXTT9=
EXTT10=
EXTT11=
EXTT12=
EXTT13=
EXTT14=
EXTT15=
EXTT16=
EXTT17=
EXTT18=
PLAYORDER=
